<svg width="200" height="200" xmlns="http://www.w3.org/2000/svg">
  <path d="M 100 100 L 125 100 A 25 25 0 0 0 100 75 L 100 100 L 100 50 L 50 50 L 50 100 L 100 100 L 100 150 L 150 100" fill="#3399ff" />
  <path d="M 0 100 L 200 100 L 195 95 L 195 105 L 200 100 Z" fill="#000000" stroke="#000000" />
  <path d="M 100 200 L 100 0 L 95 5 L 105 5 L 100 0 Z" fill="#000000" stroke="#000000" />
  <g fill="#000000" stroke="#000000">
    <circle cx="100" cy="150" r="1.5" />
    <circle cx="100" cy="125" r="1.5" />
    <circle cx="100" cy="75" r="1.5" />
    <circle cx="100" cy="50" r="1.5" />
    <circle cx="50" cy="100" r="1.5" />
    <circle cx="75" cy="100" r="1.5" />
    <circle cx="125" cy="100" r="1.5" />
    <circle cx="150" cy="100" r="1.5" />
  </g>
  <g font-size="6px" dominant-baseline="middle" text-anchor="middle">
    <text x="50" y="95">-R</text>
    <text x="75" y="95">-R/2</text>
    <text x="125" y="95">R/2</text>
    <text x="150" y="95">R</text>
  </g>
  <g font-size="6px" dominant-baseline="middle" text-anchor="left">
    <text x="102" y="150">-R</text>
    <text x="102" y="125">-R/2</text>
    <text x="102" y="75">R/2</text>
    <text x="102" y="50">R</text>
  </g>
  <g font-size="8px">
    <text x="197" y="90" dominant-baseline="middle" text-anchor="middle">x</text>
    <text x="110" y="4" dominant-baseline="middle" text-anchor="middle">y</text>
  </g>
</svg>